<mxfile host="65bd71144e">
    <diagram id="3_E5-30-QO0oIFE30upt" name="Testbench">
        <mxGraphModel dx="8793" dy="4047" grid="1" gridSize="10" guides="0" tooltips="1" connect="1" arrows="1" fold="1" page="1" pageScale="1" pageWidth="5000" pageHeight="2000" math="0" shadow="0">
            <root>
                <mxCell id="0"/>
                <mxCell id="1" parent="0"/>
                <mxCell id="LPNQ5EmCobifN_7BBwGb-65" value="" style="group" parent="1" vertex="1" connectable="0">
                    <mxGeometry x="580" y="390" width="3930" height="1290" as="geometry"/>
                </mxCell>
                <mxCell id="LPNQ5EmCobifN_7BBwGb-52" value="" style="rounded=0;whiteSpace=wrap;html=1;strokeWidth=3;fontSize=47;" parent="LPNQ5EmCobifN_7BBwGb-65" vertex="1">
                    <mxGeometry x="390" width="3200" height="1290" as="geometry"/>
                </mxCell>
                <mxCell id="dz2npfaYsxKlFmctcpzv-1" value="" style="group" parent="LPNQ5EmCobifN_7BBwGb-65" vertex="1" connectable="0">
                    <mxGeometry x="470" y="230" width="1320" height="700" as="geometry"/>
                </mxCell>
                <mxCell id="dz2npfaYsxKlFmctcpzv-2" value="" style="rounded=1;whiteSpace=wrap;html=1;strokeWidth=3;fontSize=47;" parent="dz2npfaYsxKlFmctcpzv-1" vertex="1">
                    <mxGeometry x="330" width="740" height="700" as="geometry"/>
                </mxCell>
                <mxCell id="dz2npfaYsxKlFmctcpzv-3" value="" style="shape=sumEllipse;perimeter=ellipsePerimeter;whiteSpace=wrap;html=1;backgroundOutline=1;strokeWidth=3;" parent="dz2npfaYsxKlFmctcpzv-1" vertex="1">
                    <mxGeometry x="520" y="380" width="80" height="80" as="geometry"/>
                </mxCell>
                <mxCell id="dz2npfaYsxKlFmctcpzv-4" style="edgeStyle=none;html=1;exitX=1;exitY=0.5;exitDx=0;exitDy=0;entryX=0.5;entryY=1;entryDx=0;entryDy=0;strokeWidth=3;" parent="dz2npfaYsxKlFmctcpzv-1" source="dz2npfaYsxKlFmctcpzv-3" target="dz2npfaYsxKlFmctcpzv-5" edge="1">
                    <mxGeometry relative="1" as="geometry"/>
                </mxCell>
                <mxCell id="dz2npfaYsxKlFmctcpzv-5" value="" style="shape=orEllipse;perimeter=ellipsePerimeter;whiteSpace=wrap;html=1;backgroundOutline=1;strokeWidth=3;" parent="dz2npfaYsxKlFmctcpzv-1" vertex="1">
                    <mxGeometry x="840" y="100" width="80" height="80" as="geometry"/>
                </mxCell>
                <mxCell id="dz2npfaYsxKlFmctcpzv-6" value="" style="shape=lineEllipse;perimeter=ellipsePerimeter;whiteSpace=wrap;html=1;backgroundOutline=1;strokeWidth=3;" parent="dz2npfaYsxKlFmctcpzv-1" vertex="1">
                    <mxGeometry x="840" y="380" width="80" height="80" as="geometry"/>
                </mxCell>
                <mxCell id="dz2npfaYsxKlFmctcpzv-7" style="edgeStyle=none;html=1;exitX=1;exitY=0.5;exitDx=0;exitDy=0;entryX=0;entryY=0.5;entryDx=0;entryDy=0;strokeWidth=3;" parent="dz2npfaYsxKlFmctcpzv-1" source="dz2npfaYsxKlFmctcpzv-3" target="dz2npfaYsxKlFmctcpzv-6" edge="1">
                    <mxGeometry relative="1" as="geometry"/>
                </mxCell>
                <mxCell id="dz2npfaYsxKlFmctcpzv-8" style="html=1;entryX=0;entryY=0.5;entryDx=0;entryDy=0;strokeWidth=3;fontSize=47;" parent="dz2npfaYsxKlFmctcpzv-1" source="dz2npfaYsxKlFmctcpzv-9" target="dz2npfaYsxKlFmctcpzv-5" edge="1">
                    <mxGeometry relative="1" as="geometry"/>
                </mxCell>
                <mxCell id="dz2npfaYsxKlFmctcpzv-9" value="data1" style="text;html=1;align=center;verticalAlign=middle;resizable=0;points=[];autosize=1;strokeColor=none;fillColor=none;fontSize=47;strokeWidth=3;" parent="dz2npfaYsxKlFmctcpzv-1" vertex="1">
                    <mxGeometry y="100" width="140" height="70" as="geometry"/>
                </mxCell>
                <mxCell id="dz2npfaYsxKlFmctcpzv-10" style="edgeStyle=none;html=1;strokeWidth=3;fontSize=47;" parent="dz2npfaYsxKlFmctcpzv-1" source="dz2npfaYsxKlFmctcpzv-11" target="dz2npfaYsxKlFmctcpzv-3" edge="1">
                    <mxGeometry relative="1" as="geometry"/>
                </mxCell>
                <mxCell id="dz2npfaYsxKlFmctcpzv-11" value="data2" style="text;html=1;align=center;verticalAlign=middle;resizable=0;points=[];autosize=1;strokeColor=none;fillColor=none;fontSize=47;strokeWidth=3;" parent="dz2npfaYsxKlFmctcpzv-1" vertex="1">
                    <mxGeometry x="10" y="385" width="140" height="70" as="geometry"/>
                </mxCell>
                <mxCell id="dz2npfaYsxKlFmctcpzv-12" style="edgeStyle=orthogonalEdgeStyle;html=1;entryX=0.5;entryY=1;entryDx=0;entryDy=0;strokeWidth=3;fontSize=47;" parent="dz2npfaYsxKlFmctcpzv-1" source="dz2npfaYsxKlFmctcpzv-13" target="dz2npfaYsxKlFmctcpzv-3" edge="1">
                    <mxGeometry relative="1" as="geometry"/>
                </mxCell>
                <mxCell id="dz2npfaYsxKlFmctcpzv-13" value="w" style="text;html=1;align=center;verticalAlign=middle;resizable=0;points=[];autosize=1;strokeColor=none;fillColor=none;fontSize=47;strokeWidth=3;" parent="dz2npfaYsxKlFmctcpzv-1" vertex="1">
                    <mxGeometry x="40" y="560" width="60" height="70" as="geometry"/>
                </mxCell>
                <mxCell id="dz2npfaYsxKlFmctcpzv-14" value="" style="endArrow=classicThin;html=1;strokeWidth=3;fontSize=47;exitX=0.995;exitY=0.509;exitDx=0;exitDy=0;exitPerimeter=0;entryX=0.5;entryY=0;entryDx=0;entryDy=0;endFill=0;" parent="dz2npfaYsxKlFmctcpzv-1" source="dz2npfaYsxKlFmctcpzv-9" target="dz2npfaYsxKlFmctcpzv-6" edge="1">
                    <mxGeometry width="50" height="50" relative="1" as="geometry">
                        <mxPoint x="200" y="110" as="sourcePoint"/>
                        <mxPoint x="560" y="140" as="targetPoint"/>
                        <Array as="points">
                            <mxPoint x="560" y="140"/>
                        </Array>
                    </mxGeometry>
                </mxCell>
                <mxCell id="dz2npfaYsxKlFmctcpzv-15" value="u" style="text;html=1;align=center;verticalAlign=middle;resizable=0;points=[];autosize=1;strokeColor=none;fillColor=none;fontSize=47;strokeWidth=3;" parent="dz2npfaYsxKlFmctcpzv-1" vertex="1">
                    <mxGeometry x="1270" y="105" width="50" height="70" as="geometry"/>
                </mxCell>
                <mxCell id="dz2npfaYsxKlFmctcpzv-16" style="edgeStyle=none;html=1;exitX=1;exitY=0.5;exitDx=0;exitDy=0;strokeWidth=3;fontSize=47;endArrow=classicThin;endFill=0;entryX=-0.015;entryY=0.518;entryDx=0;entryDy=0;entryPerimeter=0;" parent="dz2npfaYsxKlFmctcpzv-1" source="dz2npfaYsxKlFmctcpzv-5" target="dz2npfaYsxKlFmctcpzv-15" edge="1">
                    <mxGeometry relative="1" as="geometry">
                        <mxPoint x="1300" y="140" as="targetPoint"/>
                    </mxGeometry>
                </mxCell>
                <mxCell id="dz2npfaYsxKlFmctcpzv-17" value="t" style="text;html=1;align=center;verticalAlign=middle;resizable=0;points=[];autosize=1;strokeColor=none;fillColor=none;fontSize=47;strokeWidth=3;" parent="dz2npfaYsxKlFmctcpzv-1" vertex="1">
                    <mxGeometry x="1280" y="390" width="40" height="70" as="geometry"/>
                </mxCell>
                <mxCell id="dz2npfaYsxKlFmctcpzv-18" style="edgeStyle=none;html=1;exitX=1;exitY=0.5;exitDx=0;exitDy=0;strokeWidth=3;fontSize=47;endArrow=classicThin;endFill=0;entryX=-0.138;entryY=0.43;entryDx=0;entryDy=0;entryPerimeter=0;" parent="dz2npfaYsxKlFmctcpzv-1" source="dz2npfaYsxKlFmctcpzv-6" target="dz2npfaYsxKlFmctcpzv-17" edge="1">
                    <mxGeometry relative="1" as="geometry">
                        <mxPoint x="1290" y="420" as="targetPoint"/>
                    </mxGeometry>
                </mxCell>
                <mxCell id="dz2npfaYsxKlFmctcpzv-19" value="GS_BU" style="text;html=1;strokeColor=none;fillColor=none;align=center;verticalAlign=middle;whiteSpace=wrap;rounded=0;strokeWidth=3;fontSize=47;" parent="dz2npfaYsxKlFmctcpzv-1" vertex="1">
                    <mxGeometry x="810" y="640" width="180" height="50" as="geometry"/>
                </mxCell>
                <mxCell id="LPNQ5EmCobifN_7BBwGb-1" value="" style="group" parent="LPNQ5EmCobifN_7BBwGb-65" vertex="1" connectable="0">
                    <mxGeometry x="2100" y="170" width="1420" height="830" as="geometry"/>
                </mxCell>
                <mxCell id="LPNQ5EmCobifN_7BBwGb-2" value="" style="rounded=1;whiteSpace=wrap;html=1;strokeWidth=3;fontSize=47;" parent="LPNQ5EmCobifN_7BBwGb-1" vertex="1">
                    <mxGeometry x="230" width="1070" height="830" as="geometry"/>
                </mxCell>
                <mxCell id="LPNQ5EmCobifN_7BBwGb-3" value="" style="shape=orEllipse;perimeter=ellipsePerimeter;whiteSpace=wrap;html=1;backgroundOutline=1;strokeWidth=3;" parent="LPNQ5EmCobifN_7BBwGb-1" vertex="1">
                    <mxGeometry x="650" y="160" width="80" height="80" as="geometry"/>
                </mxCell>
                <mxCell id="LPNQ5EmCobifN_7BBwGb-4" value="" style="shape=lineEllipse;perimeter=ellipsePerimeter;whiteSpace=wrap;html=1;backgroundOutline=1;strokeWidth=3;verticalAlign=middle;" parent="LPNQ5EmCobifN_7BBwGb-1" vertex="1">
                    <mxGeometry x="650" y="440" width="80" height="80" as="geometry"/>
                </mxCell>
                <mxCell id="LPNQ5EmCobifN_7BBwGb-5" style="html=1;entryX=0;entryY=0.5;entryDx=0;entryDy=0;strokeWidth=3;fontSize=47;" parent="LPNQ5EmCobifN_7BBwGb-1" source="LPNQ5EmCobifN_7BBwGb-6" target="LPNQ5EmCobifN_7BBwGb-3" edge="1">
                    <mxGeometry relative="1" as="geometry"/>
                </mxCell>
                <mxCell id="LPNQ5EmCobifN_7BBwGb-6" value="data1" style="text;html=1;align=center;verticalAlign=middle;resizable=0;points=[];autosize=1;strokeColor=none;fillColor=none;fontSize=47;strokeWidth=3;" parent="LPNQ5EmCobifN_7BBwGb-1" vertex="1">
                    <mxGeometry y="160" width="140" height="70" as="geometry"/>
                </mxCell>
                <mxCell id="LPNQ5EmCobifN_7BBwGb-7" style="edgeStyle=none;html=1;entryX=0;entryY=0.5;entryDx=0;entryDy=0;strokeWidth=3;fontSize=47;endArrow=block;endFill=1;" parent="LPNQ5EmCobifN_7BBwGb-1" source="LPNQ5EmCobifN_7BBwGb-8" target="LPNQ5EmCobifN_7BBwGb-4" edge="1">
                    <mxGeometry relative="1" as="geometry"/>
                </mxCell>
                <mxCell id="LPNQ5EmCobifN_7BBwGb-8" value="data2" style="text;html=1;align=center;verticalAlign=middle;resizable=0;points=[];autosize=1;strokeColor=none;fillColor=none;fontSize=47;strokeWidth=3;" parent="LPNQ5EmCobifN_7BBwGb-1" vertex="1">
                    <mxGeometry y="445" width="140" height="70" as="geometry"/>
                </mxCell>
                <mxCell id="LPNQ5EmCobifN_7BBwGb-9" value="w" style="text;html=1;align=center;verticalAlign=middle;resizable=0;points=[];autosize=1;strokeColor=none;fillColor=none;fontSize=47;strokeWidth=3;" parent="LPNQ5EmCobifN_7BBwGb-1" vertex="1">
                    <mxGeometry x="50" y="670" width="60" height="70" as="geometry"/>
                </mxCell>
                <mxCell id="LPNQ5EmCobifN_7BBwGb-10" value="" style="endArrow=classicThin;html=1;strokeWidth=3;fontSize=47;exitX=0.995;exitY=0.509;exitDx=0;exitDy=0;exitPerimeter=0;entryX=0.5;entryY=0;entryDx=0;entryDy=0;endFill=0;" parent="LPNQ5EmCobifN_7BBwGb-1" source="LPNQ5EmCobifN_7BBwGb-6" target="LPNQ5EmCobifN_7BBwGb-4" edge="1">
                    <mxGeometry width="50" height="50" relative="1" as="geometry">
                        <mxPoint x="10" y="170" as="sourcePoint"/>
                        <mxPoint x="370" y="200" as="targetPoint"/>
                        <Array as="points">
                            <mxPoint x="370" y="200"/>
                        </Array>
                    </mxGeometry>
                </mxCell>
                <mxCell id="LPNQ5EmCobifN_7BBwGb-11" value="u" style="text;html=1;align=center;verticalAlign=middle;resizable=0;points=[];autosize=1;strokeColor=none;fillColor=none;fontSize=47;strokeWidth=3;" parent="LPNQ5EmCobifN_7BBwGb-1" vertex="1">
                    <mxGeometry x="1370" y="165" width="50" height="70" as="geometry"/>
                </mxCell>
                <mxCell id="LPNQ5EmCobifN_7BBwGb-12" value="t" style="text;html=1;align=center;verticalAlign=middle;resizable=0;points=[];autosize=1;strokeColor=none;fillColor=none;fontSize=47;strokeWidth=3;" parent="LPNQ5EmCobifN_7BBwGb-1" vertex="1">
                    <mxGeometry x="1370" y="445" width="40" height="70" as="geometry"/>
                </mxCell>
                <mxCell id="LPNQ5EmCobifN_7BBwGb-13" value="CT_BU" style="text;html=1;strokeColor=none;fillColor=none;align=center;verticalAlign=middle;whiteSpace=wrap;rounded=0;strokeWidth=3;fontSize=47;" parent="LPNQ5EmCobifN_7BBwGb-1" vertex="1">
                    <mxGeometry x="1040" y="750" width="180" height="50" as="geometry"/>
                </mxCell>
                <mxCell id="LPNQ5EmCobifN_7BBwGb-14" value="" style="endArrow=block;html=1;strokeWidth=3;fontSize=47;entryX=0.5;entryY=1;entryDx=0;entryDy=0;endFill=1;exitX=0.994;exitY=0.467;exitDx=0;exitDy=0;exitPerimeter=0;" parent="LPNQ5EmCobifN_7BBwGb-1" source="LPNQ5EmCobifN_7BBwGb-8" target="LPNQ5EmCobifN_7BBwGb-3" edge="1">
                    <mxGeometry width="50" height="50" relative="1" as="geometry">
                        <mxPoint x="-30" y="480" as="sourcePoint"/>
                        <mxPoint x="560" y="460" as="targetPoint"/>
                        <Array as="points">
                            <mxPoint x="370" y="480"/>
                        </Array>
                    </mxGeometry>
                </mxCell>
                <mxCell id="LPNQ5EmCobifN_7BBwGb-15" style="edgeStyle=none;html=1;exitX=1;exitY=0.5;exitDx=0;exitDy=0;strokeWidth=3;fontSize=47;endArrow=block;endFill=1;entryX=0.007;entryY=0.506;entryDx=0;entryDy=0;entryPerimeter=0;" parent="LPNQ5EmCobifN_7BBwGb-1" source="LPNQ5EmCobifN_7BBwGb-16" target="LPNQ5EmCobifN_7BBwGb-11" edge="1">
                    <mxGeometry relative="1" as="geometry">
                        <mxPoint x="1400" y="210" as="targetPoint"/>
                    </mxGeometry>
                </mxCell>
                <mxCell id="LPNQ5EmCobifN_7BBwGb-16" value="" style="shape=sumEllipse;perimeter=ellipsePerimeter;whiteSpace=wrap;html=1;backgroundOutline=1;strokeWidth=3;fontSize=47;" parent="LPNQ5EmCobifN_7BBwGb-1" vertex="1">
                    <mxGeometry x="870" y="160" width="80" height="80" as="geometry"/>
                </mxCell>
                <mxCell id="LPNQ5EmCobifN_7BBwGb-17" style="edgeStyle=none;html=1;exitX=1;exitY=0.5;exitDx=0;exitDy=0;entryX=0;entryY=0.5;entryDx=0;entryDy=0;strokeWidth=3;fontSize=47;endArrow=block;endFill=1;" parent="LPNQ5EmCobifN_7BBwGb-1" source="LPNQ5EmCobifN_7BBwGb-3" target="LPNQ5EmCobifN_7BBwGb-16" edge="1">
                    <mxGeometry relative="1" as="geometry"/>
                </mxCell>
                <mxCell id="LPNQ5EmCobifN_7BBwGb-18" value="" style="shape=sumEllipse;perimeter=ellipsePerimeter;whiteSpace=wrap;html=1;backgroundOutline=1;strokeWidth=3;fontSize=47;" parent="LPNQ5EmCobifN_7BBwGb-1" vertex="1">
                    <mxGeometry x="870" y="440" width="80" height="80" as="geometry"/>
                </mxCell>
                <mxCell id="LPNQ5EmCobifN_7BBwGb-19" style="edgeStyle=none;html=1;exitX=1;exitY=0.5;exitDx=0;exitDy=0;entryX=0;entryY=0.5;entryDx=0;entryDy=0;strokeWidth=3;fontSize=47;endArrow=block;endFill=1;" parent="LPNQ5EmCobifN_7BBwGb-1" source="LPNQ5EmCobifN_7BBwGb-4" target="LPNQ5EmCobifN_7BBwGb-18" edge="1">
                    <mxGeometry relative="1" as="geometry"/>
                </mxCell>
                <mxCell id="LPNQ5EmCobifN_7BBwGb-20" style="edgeStyle=none;html=1;entryX=-0.008;entryY=0.519;entryDx=0;entryDy=0;entryPerimeter=0;strokeWidth=3;fontSize=47;endArrow=block;endFill=1;" parent="LPNQ5EmCobifN_7BBwGb-1" source="LPNQ5EmCobifN_7BBwGb-21" target="LPNQ5EmCobifN_7BBwGb-12" edge="1">
                    <mxGeometry relative="1" as="geometry"/>
                </mxCell>
                <mxCell id="LPNQ5EmCobifN_7BBwGb-21" value="" style="shape=sumEllipse;perimeter=ellipsePerimeter;whiteSpace=wrap;html=1;backgroundOutline=1;strokeWidth=3;fontSize=47;" parent="LPNQ5EmCobifN_7BBwGb-1" vertex="1">
                    <mxGeometry x="1100" y="440" width="80" height="80" as="geometry"/>
                </mxCell>
                <mxCell id="LPNQ5EmCobifN_7BBwGb-22" style="edgeStyle=none;html=1;entryX=0.5;entryY=0;entryDx=0;entryDy=0;strokeWidth=3;fontSize=47;endArrow=block;endFill=1;" parent="LPNQ5EmCobifN_7BBwGb-1" source="LPNQ5EmCobifN_7BBwGb-23" target="LPNQ5EmCobifN_7BBwGb-16" edge="1">
                    <mxGeometry relative="1" as="geometry">
                        <Array as="points">
                            <mxPoint x="910" y="65"/>
                        </Array>
                    </mxGeometry>
                </mxCell>
                <mxCell id="LPNQ5EmCobifN_7BBwGb-23" value="1/2" style="text;html=1;align=center;verticalAlign=middle;resizable=0;points=[];autosize=1;strokeColor=none;fillColor=none;fontSize=47;" parent="LPNQ5EmCobifN_7BBwGb-1" vertex="1">
                    <mxGeometry x="730" y="30" width="90" height="70" as="geometry"/>
                </mxCell>
                <mxCell id="LPNQ5EmCobifN_7BBwGb-24" style="edgeStyle=none;html=1;entryX=0.5;entryY=1;entryDx=0;entryDy=0;strokeWidth=3;fontSize=47;endArrow=block;endFill=1;" parent="LPNQ5EmCobifN_7BBwGb-1" source="LPNQ5EmCobifN_7BBwGb-25" target="LPNQ5EmCobifN_7BBwGb-18" edge="1">
                    <mxGeometry relative="1" as="geometry">
                        <Array as="points">
                            <mxPoint x="910" y="605"/>
                        </Array>
                    </mxGeometry>
                </mxCell>
                <mxCell id="LPNQ5EmCobifN_7BBwGb-25" value="1/2" style="text;html=1;align=center;verticalAlign=middle;resizable=0;points=[];autosize=1;strokeColor=none;fillColor=none;fontSize=47;" parent="LPNQ5EmCobifN_7BBwGb-1" vertex="1">
                    <mxGeometry x="740" y="570" width="90" height="70" as="geometry"/>
                </mxCell>
                <mxCell id="LPNQ5EmCobifN_7BBwGb-26" style="edgeStyle=none;html=1;entryX=0.5;entryY=1;entryDx=0;entryDy=0;strokeWidth=3;fontSize=47;endArrow=block;endFill=1;" parent="LPNQ5EmCobifN_7BBwGb-1" source="LPNQ5EmCobifN_7BBwGb-27" target="LPNQ5EmCobifN_7BBwGb-21" edge="1">
                    <mxGeometry relative="1" as="geometry">
                        <Array as="points">
                            <mxPoint x="1140" y="605"/>
                        </Array>
                    </mxGeometry>
                </mxCell>
                <mxCell id="LPNQ5EmCobifN_7BBwGb-27" value="1/w" style="text;html=1;align=center;verticalAlign=middle;resizable=0;points=[];autosize=1;strokeColor=none;fillColor=none;fontSize=47;" parent="LPNQ5EmCobifN_7BBwGb-1" vertex="1">
                    <mxGeometry x="975" y="570" width="100" height="70" as="geometry"/>
                </mxCell>
                <mxCell id="LPNQ5EmCobifN_7BBwGb-28" style="edgeStyle=none;html=1;exitX=1;exitY=0.5;exitDx=0;exitDy=0;entryX=0;entryY=0.5;entryDx=0;entryDy=0;strokeWidth=3;fontSize=47;endArrow=block;endFill=1;" parent="LPNQ5EmCobifN_7BBwGb-1" source="LPNQ5EmCobifN_7BBwGb-18" target="LPNQ5EmCobifN_7BBwGb-21" edge="1">
                    <mxGeometry relative="1" as="geometry"/>
                </mxCell>
                <mxCell id="LPNQ5EmCobifN_7BBwGb-29" style="edgeStyle=none;html=1;entryX=0.629;entryY=1.11;entryDx=0;entryDy=0;entryPerimeter=0;strokeWidth=3;fontSize=47;endArrow=block;endFill=1;" parent="LPNQ5EmCobifN_7BBwGb-1" source="LPNQ5EmCobifN_7BBwGb-9" target="LPNQ5EmCobifN_7BBwGb-27" edge="1">
                    <mxGeometry relative="1" as="geometry">
                        <Array as="points">
                            <mxPoint x="1038" y="710"/>
                        </Array>
                    </mxGeometry>
                </mxCell>
                <mxCell id="LPNQ5EmCobifN_7BBwGb-30" style="edgeStyle=none;html=1;entryX=0.009;entryY=0.579;entryDx=0;entryDy=0;entryPerimeter=0;strokeWidth=3;fontSize=47;endArrow=block;endFill=1;" parent="LPNQ5EmCobifN_7BBwGb-65" source="dz2npfaYsxKlFmctcpzv-15" target="LPNQ5EmCobifN_7BBwGb-6" edge="1">
                    <mxGeometry relative="1" as="geometry"/>
                </mxCell>
                <mxCell id="LPNQ5EmCobifN_7BBwGb-31" style="edgeStyle=none;html=1;entryX=-0.011;entryY=0.654;entryDx=0;entryDy=0;entryPerimeter=0;strokeWidth=3;fontSize=47;endArrow=block;endFill=1;" parent="LPNQ5EmCobifN_7BBwGb-65" source="dz2npfaYsxKlFmctcpzv-17" target="LPNQ5EmCobifN_7BBwGb-8" edge="1">
                    <mxGeometry relative="1" as="geometry"/>
                </mxCell>
                <mxCell id="LPNQ5EmCobifN_7BBwGb-32" style="edgeStyle=none;html=1;strokeWidth=3;fontSize=47;endArrow=block;endFill=1;" parent="LPNQ5EmCobifN_7BBwGb-65" source="dz2npfaYsxKlFmctcpzv-13" target="LPNQ5EmCobifN_7BBwGb-9" edge="1">
                    <mxGeometry relative="1" as="geometry">
                        <Array as="points">
                            <mxPoint x="540" y="1120"/>
                            <mxPoint x="2180" y="1120"/>
                        </Array>
                    </mxGeometry>
                </mxCell>
                <mxCell id="LPNQ5EmCobifN_7BBwGb-55" style="edgeStyle=none;html=1;strokeWidth=3;fontSize=47;endArrow=block;endFill=1;" parent="LPNQ5EmCobifN_7BBwGb-65" source="LPNQ5EmCobifN_7BBwGb-53" target="dz2npfaYsxKlFmctcpzv-9" edge="1">
                    <mxGeometry relative="1" as="geometry"/>
                </mxCell>
                <mxCell id="LPNQ5EmCobifN_7BBwGb-53" value="data1_in" style="text;html=1;strokeColor=none;fillColor=none;align=center;verticalAlign=middle;whiteSpace=wrap;rounded=0;strokeWidth=3;fontSize=47;" parent="LPNQ5EmCobifN_7BBwGb-65" vertex="1">
                    <mxGeometry y="335" width="200" height="60" as="geometry"/>
                </mxCell>
                <mxCell id="LPNQ5EmCobifN_7BBwGb-57" style="edgeStyle=none;html=1;strokeWidth=3;fontSize=47;endArrow=block;endFill=1;" parent="LPNQ5EmCobifN_7BBwGb-65" source="LPNQ5EmCobifN_7BBwGb-56" target="dz2npfaYsxKlFmctcpzv-11" edge="1">
                    <mxGeometry relative="1" as="geometry"/>
                </mxCell>
                <mxCell id="LPNQ5EmCobifN_7BBwGb-56" value="data2_in" style="text;html=1;strokeColor=none;fillColor=none;align=center;verticalAlign=middle;whiteSpace=wrap;rounded=0;strokeWidth=3;fontSize=47;" parent="LPNQ5EmCobifN_7BBwGb-65" vertex="1">
                    <mxGeometry y="620" width="200" height="60" as="geometry"/>
                </mxCell>
                <mxCell id="LPNQ5EmCobifN_7BBwGb-59" style="edgeStyle=none;html=1;strokeWidth=3;fontSize=47;endArrow=block;endFill=1;" parent="LPNQ5EmCobifN_7BBwGb-65" source="LPNQ5EmCobifN_7BBwGb-58" target="dz2npfaYsxKlFmctcpzv-13" edge="1">
                    <mxGeometry relative="1" as="geometry"/>
                </mxCell>
                <mxCell id="LPNQ5EmCobifN_7BBwGb-58" value="w_in" style="text;html=1;strokeColor=none;fillColor=none;align=center;verticalAlign=middle;whiteSpace=wrap;rounded=0;strokeWidth=3;fontSize=47;" parent="LPNQ5EmCobifN_7BBwGb-65" vertex="1">
                    <mxGeometry x="10" y="795" width="200" height="60" as="geometry"/>
                </mxCell>
                <mxCell id="LPNQ5EmCobifN_7BBwGb-60" value="data1_out" style="text;html=1;strokeColor=none;fillColor=none;align=center;verticalAlign=middle;whiteSpace=wrap;rounded=0;strokeWidth=3;fontSize=47;" parent="LPNQ5EmCobifN_7BBwGb-65" vertex="1">
                    <mxGeometry x="3730" y="340" width="200" height="60" as="geometry"/>
                </mxCell>
                <mxCell id="LPNQ5EmCobifN_7BBwGb-61" value="data2_out" style="text;html=1;strokeColor=none;fillColor=none;align=center;verticalAlign=middle;whiteSpace=wrap;rounded=0;strokeWidth=3;fontSize=47;" parent="LPNQ5EmCobifN_7BBwGb-65" vertex="1">
                    <mxGeometry x="3730" y="620" width="200" height="60" as="geometry"/>
                </mxCell>
                <mxCell id="LPNQ5EmCobifN_7BBwGb-62" style="edgeStyle=none;html=1;entryX=0;entryY=0.5;entryDx=0;entryDy=0;strokeWidth=3;fontSize=47;endArrow=block;endFill=1;" parent="LPNQ5EmCobifN_7BBwGb-65" source="LPNQ5EmCobifN_7BBwGb-11" target="LPNQ5EmCobifN_7BBwGb-60" edge="1">
                    <mxGeometry relative="1" as="geometry"/>
                </mxCell>
                <mxCell id="LPNQ5EmCobifN_7BBwGb-63" style="edgeStyle=none;html=1;entryX=0;entryY=0.5;entryDx=0;entryDy=0;strokeWidth=3;fontSize=47;endArrow=block;endFill=1;" parent="LPNQ5EmCobifN_7BBwGb-65" source="LPNQ5EmCobifN_7BBwGb-12" target="LPNQ5EmCobifN_7BBwGb-61" edge="1">
                    <mxGeometry relative="1" as="geometry"/>
                </mxCell>
                <mxCell id="LPNQ5EmCobifN_7BBwGb-64" value="Testbench" style="text;html=1;align=center;verticalAlign=middle;resizable=0;points=[];autosize=1;strokeColor=none;fillColor=none;fontSize=47;" parent="LPNQ5EmCobifN_7BBwGb-65" vertex="1">
                    <mxGeometry x="480" y="60" width="240" height="70" as="geometry"/>
                </mxCell>
            </root>
        </mxGraphModel>
    </diagram>
    <diagram id="Gno4I8MZtbHnvfZaDJTa" name="GS_BU">
        <mxGraphModel dx="3298" dy="1518" grid="1" gridSize="10" guides="1" tooltips="1" connect="1" arrows="1" fold="1" page="1" pageScale="1" pageWidth="2500" pageHeight="2000" math="0" shadow="0">
            <root>
                <mxCell id="0"/>
                <mxCell id="1" parent="0"/>
                <mxCell id="27" value="" style="group" parent="1" vertex="1" connectable="0">
                    <mxGeometry x="450" y="550" width="1320" height="700" as="geometry"/>
                </mxCell>
                <mxCell id="26" value="" style="rounded=1;whiteSpace=wrap;html=1;strokeWidth=3;fontSize=47;" parent="27" vertex="1">
                    <mxGeometry x="330" width="740" height="700" as="geometry"/>
                </mxCell>
                <mxCell id="4" value="" style="shape=sumEllipse;perimeter=ellipsePerimeter;whiteSpace=wrap;html=1;backgroundOutline=1;strokeWidth=3;" parent="27" vertex="1">
                    <mxGeometry x="520" y="380" width="80" height="80" as="geometry"/>
                </mxCell>
                <mxCell id="8" style="edgeStyle=none;html=1;exitX=1;exitY=0.5;exitDx=0;exitDy=0;entryX=0.5;entryY=1;entryDx=0;entryDy=0;strokeWidth=3;" parent="27" source="4" target="5" edge="1">
                    <mxGeometry relative="1" as="geometry"/>
                </mxCell>
                <mxCell id="5" value="" style="shape=orEllipse;perimeter=ellipsePerimeter;whiteSpace=wrap;html=1;backgroundOutline=1;strokeWidth=3;" parent="27" vertex="1">
                    <mxGeometry x="840" y="100" width="80" height="80" as="geometry"/>
                </mxCell>
                <mxCell id="6" value="" style="shape=lineEllipse;perimeter=ellipsePerimeter;whiteSpace=wrap;html=1;backgroundOutline=1;strokeWidth=3;" parent="27" vertex="1">
                    <mxGeometry x="840" y="380" width="80" height="80" as="geometry"/>
                </mxCell>
                <mxCell id="7" style="edgeStyle=none;html=1;exitX=1;exitY=0.5;exitDx=0;exitDy=0;entryX=0;entryY=0.5;entryDx=0;entryDy=0;strokeWidth=3;" parent="27" source="4" target="6" edge="1">
                    <mxGeometry relative="1" as="geometry"/>
                </mxCell>
                <mxCell id="12" style="html=1;entryX=0;entryY=0.5;entryDx=0;entryDy=0;strokeWidth=3;fontSize=47;" parent="27" source="9" target="5" edge="1">
                    <mxGeometry relative="1" as="geometry"/>
                </mxCell>
                <mxCell id="9" value="data1" style="text;html=1;align=center;verticalAlign=middle;resizable=0;points=[];autosize=1;strokeColor=none;fillColor=none;fontSize=47;strokeWidth=3;" parent="27" vertex="1">
                    <mxGeometry y="100" width="140" height="70" as="geometry"/>
                </mxCell>
                <mxCell id="15" style="edgeStyle=none;html=1;strokeWidth=3;fontSize=47;" parent="27" source="10" target="4" edge="1">
                    <mxGeometry relative="1" as="geometry"/>
                </mxCell>
                <mxCell id="10" value="data2" style="text;html=1;align=center;verticalAlign=middle;resizable=0;points=[];autosize=1;strokeColor=none;fillColor=none;fontSize=47;strokeWidth=3;" parent="27" vertex="1">
                    <mxGeometry x="10" y="385" width="140" height="70" as="geometry"/>
                </mxCell>
                <mxCell id="16" style="edgeStyle=orthogonalEdgeStyle;html=1;entryX=0.5;entryY=1;entryDx=0;entryDy=0;strokeWidth=3;fontSize=47;" parent="27" source="11" target="4" edge="1">
                    <mxGeometry relative="1" as="geometry"/>
                </mxCell>
                <mxCell id="11" value="w" style="text;html=1;align=center;verticalAlign=middle;resizable=0;points=[];autosize=1;strokeColor=none;fillColor=none;fontSize=47;strokeWidth=3;" parent="27" vertex="1">
                    <mxGeometry x="40" y="560" width="60" height="70" as="geometry"/>
                </mxCell>
                <mxCell id="18" value="" style="endArrow=classicThin;html=1;strokeWidth=3;fontSize=47;exitX=0.995;exitY=0.509;exitDx=0;exitDy=0;exitPerimeter=0;entryX=0.5;entryY=0;entryDx=0;entryDy=0;endFill=0;" parent="27" source="9" target="6" edge="1">
                    <mxGeometry width="50" height="50" relative="1" as="geometry">
                        <mxPoint x="200" y="110" as="sourcePoint"/>
                        <mxPoint x="560" y="140" as="targetPoint"/>
                        <Array as="points">
                            <mxPoint x="560" y="140"/>
                        </Array>
                    </mxGeometry>
                </mxCell>
                <mxCell id="22" value="u" style="text;html=1;align=center;verticalAlign=middle;resizable=0;points=[];autosize=1;strokeColor=none;fillColor=none;fontSize=47;strokeWidth=3;" parent="27" vertex="1">
                    <mxGeometry x="1270" y="105" width="50" height="70" as="geometry"/>
                </mxCell>
                <mxCell id="20" style="edgeStyle=none;html=1;exitX=1;exitY=0.5;exitDx=0;exitDy=0;strokeWidth=3;fontSize=47;endArrow=classicThin;endFill=0;entryX=-0.015;entryY=0.518;entryDx=0;entryDy=0;entryPerimeter=0;" parent="27" source="5" target="22" edge="1">
                    <mxGeometry relative="1" as="geometry">
                        <mxPoint x="1300" y="140" as="targetPoint"/>
                    </mxGeometry>
                </mxCell>
                <mxCell id="23" value="t" style="text;html=1;align=center;verticalAlign=middle;resizable=0;points=[];autosize=1;strokeColor=none;fillColor=none;fontSize=47;strokeWidth=3;" parent="27" vertex="1">
                    <mxGeometry x="1280" y="390" width="40" height="70" as="geometry"/>
                </mxCell>
                <mxCell id="21" style="edgeStyle=none;html=1;exitX=1;exitY=0.5;exitDx=0;exitDy=0;strokeWidth=3;fontSize=47;endArrow=classicThin;endFill=0;entryX=-0.138;entryY=0.43;entryDx=0;entryDy=0;entryPerimeter=0;" parent="27" source="6" target="23" edge="1">
                    <mxGeometry relative="1" as="geometry">
                        <mxPoint x="1290" y="420" as="targetPoint"/>
                    </mxGeometry>
                </mxCell>
                <mxCell id="28" value="GS_BU" style="text;html=1;strokeColor=none;fillColor=none;align=center;verticalAlign=middle;whiteSpace=wrap;rounded=0;strokeWidth=3;fontSize=47;" parent="27" vertex="1">
                    <mxGeometry x="810" y="640" width="180" height="50" as="geometry"/>
                </mxCell>
            </root>
        </mxGraphModel>
    </diagram>
    <diagram id="iEMBCH8Y49i6mWbhFtn6" name="CT_BU">
        <mxGraphModel dx="1319" dy="607" grid="1" gridSize="10" guides="1" tooltips="1" connect="1" arrows="1" fold="1" page="1" pageScale="1" pageWidth="2500" pageHeight="2000" math="0" shadow="0">
            <root>
                <mxCell id="0"/>
                <mxCell id="1" parent="0"/>
                <mxCell id="IYUW4PkFBxvoO_bQ2ajv-38" value="" style="group" parent="1" vertex="1" connectable="0">
                    <mxGeometry x="530" y="500" width="1420" height="830" as="geometry"/>
                </mxCell>
                <mxCell id="IYUW4PkFBxvoO_bQ2ajv-2" value="" style="rounded=1;whiteSpace=wrap;html=1;strokeWidth=3;fontSize=47;" parent="IYUW4PkFBxvoO_bQ2ajv-38" vertex="1">
                    <mxGeometry x="230" width="1070" height="830" as="geometry"/>
                </mxCell>
                <mxCell id="IYUW4PkFBxvoO_bQ2ajv-5" value="" style="shape=orEllipse;perimeter=ellipsePerimeter;whiteSpace=wrap;html=1;backgroundOutline=1;strokeWidth=3;" parent="IYUW4PkFBxvoO_bQ2ajv-38" vertex="1">
                    <mxGeometry x="650" y="160" width="80" height="80" as="geometry"/>
                </mxCell>
                <mxCell id="IYUW4PkFBxvoO_bQ2ajv-6" value="" style="shape=lineEllipse;perimeter=ellipsePerimeter;whiteSpace=wrap;html=1;backgroundOutline=1;strokeWidth=3;verticalAlign=middle;" parent="IYUW4PkFBxvoO_bQ2ajv-38" vertex="1">
                    <mxGeometry x="650" y="440" width="80" height="80" as="geometry"/>
                </mxCell>
                <mxCell id="IYUW4PkFBxvoO_bQ2ajv-8" style="html=1;entryX=0;entryY=0.5;entryDx=0;entryDy=0;strokeWidth=3;fontSize=47;" parent="IYUW4PkFBxvoO_bQ2ajv-38" source="IYUW4PkFBxvoO_bQ2ajv-9" target="IYUW4PkFBxvoO_bQ2ajv-5" edge="1">
                    <mxGeometry relative="1" as="geometry"/>
                </mxCell>
                <mxCell id="IYUW4PkFBxvoO_bQ2ajv-9" value="data1" style="text;html=1;align=center;verticalAlign=middle;resizable=0;points=[];autosize=1;strokeColor=none;fillColor=none;fontSize=47;strokeWidth=3;" parent="IYUW4PkFBxvoO_bQ2ajv-38" vertex="1">
                    <mxGeometry y="160" width="140" height="70" as="geometry"/>
                </mxCell>
                <mxCell id="IYUW4PkFBxvoO_bQ2ajv-21" style="edgeStyle=none;html=1;entryX=0;entryY=0.5;entryDx=0;entryDy=0;strokeWidth=3;fontSize=47;endArrow=block;endFill=1;" parent="IYUW4PkFBxvoO_bQ2ajv-38" source="IYUW4PkFBxvoO_bQ2ajv-11" target="IYUW4PkFBxvoO_bQ2ajv-6" edge="1">
                    <mxGeometry relative="1" as="geometry"/>
                </mxCell>
                <mxCell id="IYUW4PkFBxvoO_bQ2ajv-11" value="data2" style="text;html=1;align=center;verticalAlign=middle;resizable=0;points=[];autosize=1;strokeColor=none;fillColor=none;fontSize=47;strokeWidth=3;" parent="IYUW4PkFBxvoO_bQ2ajv-38" vertex="1">
                    <mxGeometry y="445" width="140" height="70" as="geometry"/>
                </mxCell>
                <mxCell id="IYUW4PkFBxvoO_bQ2ajv-13" value="w" style="text;html=1;align=center;verticalAlign=middle;resizable=0;points=[];autosize=1;strokeColor=none;fillColor=none;fontSize=47;strokeWidth=3;" parent="IYUW4PkFBxvoO_bQ2ajv-38" vertex="1">
                    <mxGeometry x="50" y="670" width="60" height="70" as="geometry"/>
                </mxCell>
                <mxCell id="IYUW4PkFBxvoO_bQ2ajv-14" value="" style="endArrow=classicThin;html=1;strokeWidth=3;fontSize=47;exitX=0.995;exitY=0.509;exitDx=0;exitDy=0;exitPerimeter=0;entryX=0.5;entryY=0;entryDx=0;entryDy=0;endFill=0;" parent="IYUW4PkFBxvoO_bQ2ajv-38" source="IYUW4PkFBxvoO_bQ2ajv-9" target="IYUW4PkFBxvoO_bQ2ajv-6" edge="1">
                    <mxGeometry width="50" height="50" relative="1" as="geometry">
                        <mxPoint x="10" y="170" as="sourcePoint"/>
                        <mxPoint x="370" y="200" as="targetPoint"/>
                        <Array as="points">
                            <mxPoint x="370" y="200"/>
                        </Array>
                    </mxGeometry>
                </mxCell>
                <mxCell id="IYUW4PkFBxvoO_bQ2ajv-15" value="u" style="text;html=1;align=center;verticalAlign=middle;resizable=0;points=[];autosize=1;strokeColor=none;fillColor=none;fontSize=47;strokeWidth=3;" parent="IYUW4PkFBxvoO_bQ2ajv-38" vertex="1">
                    <mxGeometry x="1370" y="165" width="50" height="70" as="geometry"/>
                </mxCell>
                <mxCell id="IYUW4PkFBxvoO_bQ2ajv-17" value="t" style="text;html=1;align=center;verticalAlign=middle;resizable=0;points=[];autosize=1;strokeColor=none;fillColor=none;fontSize=47;strokeWidth=3;" parent="IYUW4PkFBxvoO_bQ2ajv-38" vertex="1">
                    <mxGeometry x="1370" y="445" width="40" height="70" as="geometry"/>
                </mxCell>
                <mxCell id="IYUW4PkFBxvoO_bQ2ajv-19" value="CT_BU" style="text;html=1;strokeColor=none;fillColor=none;align=center;verticalAlign=middle;whiteSpace=wrap;rounded=0;strokeWidth=3;fontSize=47;" parent="IYUW4PkFBxvoO_bQ2ajv-38" vertex="1">
                    <mxGeometry x="1040" y="750" width="180" height="50" as="geometry"/>
                </mxCell>
                <mxCell id="IYUW4PkFBxvoO_bQ2ajv-20" value="" style="endArrow=block;html=1;strokeWidth=3;fontSize=47;entryX=0.5;entryY=1;entryDx=0;entryDy=0;endFill=1;exitX=0.994;exitY=0.467;exitDx=0;exitDy=0;exitPerimeter=0;" parent="IYUW4PkFBxvoO_bQ2ajv-38" source="IYUW4PkFBxvoO_bQ2ajv-11" target="IYUW4PkFBxvoO_bQ2ajv-5" edge="1">
                    <mxGeometry width="50" height="50" relative="1" as="geometry">
                        <mxPoint x="-30" y="480" as="sourcePoint"/>
                        <mxPoint x="560" y="460" as="targetPoint"/>
                        <Array as="points">
                            <mxPoint x="370" y="480"/>
                        </Array>
                    </mxGeometry>
                </mxCell>
                <mxCell id="IYUW4PkFBxvoO_bQ2ajv-32" style="edgeStyle=none;html=1;exitX=1;exitY=0.5;exitDx=0;exitDy=0;strokeWidth=3;fontSize=47;endArrow=block;endFill=1;entryX=0.007;entryY=0.506;entryDx=0;entryDy=0;entryPerimeter=0;" parent="IYUW4PkFBxvoO_bQ2ajv-38" source="IYUW4PkFBxvoO_bQ2ajv-22" target="IYUW4PkFBxvoO_bQ2ajv-15" edge="1">
                    <mxGeometry relative="1" as="geometry">
                        <mxPoint x="1400" y="210" as="targetPoint"/>
                    </mxGeometry>
                </mxCell>
                <mxCell id="IYUW4PkFBxvoO_bQ2ajv-22" value="" style="shape=sumEllipse;perimeter=ellipsePerimeter;whiteSpace=wrap;html=1;backgroundOutline=1;strokeWidth=3;fontSize=47;" parent="IYUW4PkFBxvoO_bQ2ajv-38" vertex="1">
                    <mxGeometry x="870" y="160" width="80" height="80" as="geometry"/>
                </mxCell>
                <mxCell id="IYUW4PkFBxvoO_bQ2ajv-26" style="edgeStyle=none;html=1;exitX=1;exitY=0.5;exitDx=0;exitDy=0;entryX=0;entryY=0.5;entryDx=0;entryDy=0;strokeWidth=3;fontSize=47;endArrow=block;endFill=1;" parent="IYUW4PkFBxvoO_bQ2ajv-38" source="IYUW4PkFBxvoO_bQ2ajv-5" target="IYUW4PkFBxvoO_bQ2ajv-22" edge="1">
                    <mxGeometry relative="1" as="geometry"/>
                </mxCell>
                <mxCell id="IYUW4PkFBxvoO_bQ2ajv-24" value="" style="shape=sumEllipse;perimeter=ellipsePerimeter;whiteSpace=wrap;html=1;backgroundOutline=1;strokeWidth=3;fontSize=47;" parent="IYUW4PkFBxvoO_bQ2ajv-38" vertex="1">
                    <mxGeometry x="870" y="440" width="80" height="80" as="geometry"/>
                </mxCell>
                <mxCell id="IYUW4PkFBxvoO_bQ2ajv-30" style="edgeStyle=none;html=1;exitX=1;exitY=0.5;exitDx=0;exitDy=0;entryX=0;entryY=0.5;entryDx=0;entryDy=0;strokeWidth=3;fontSize=47;endArrow=block;endFill=1;" parent="IYUW4PkFBxvoO_bQ2ajv-38" source="IYUW4PkFBxvoO_bQ2ajv-6" target="IYUW4PkFBxvoO_bQ2ajv-24" edge="1">
                    <mxGeometry relative="1" as="geometry"/>
                </mxCell>
                <mxCell id="IYUW4PkFBxvoO_bQ2ajv-34" style="edgeStyle=none;html=1;entryX=-0.008;entryY=0.519;entryDx=0;entryDy=0;entryPerimeter=0;strokeWidth=3;fontSize=47;endArrow=block;endFill=1;" parent="IYUW4PkFBxvoO_bQ2ajv-38" source="IYUW4PkFBxvoO_bQ2ajv-25" target="IYUW4PkFBxvoO_bQ2ajv-17" edge="1">
                    <mxGeometry relative="1" as="geometry"/>
                </mxCell>
                <mxCell id="IYUW4PkFBxvoO_bQ2ajv-25" value="" style="shape=sumEllipse;perimeter=ellipsePerimeter;whiteSpace=wrap;html=1;backgroundOutline=1;strokeWidth=3;fontSize=47;" parent="IYUW4PkFBxvoO_bQ2ajv-38" vertex="1">
                    <mxGeometry x="1100" y="440" width="80" height="80" as="geometry"/>
                </mxCell>
                <mxCell id="IYUW4PkFBxvoO_bQ2ajv-28" style="edgeStyle=none;html=1;entryX=0.5;entryY=0;entryDx=0;entryDy=0;strokeWidth=3;fontSize=47;endArrow=block;endFill=1;" parent="IYUW4PkFBxvoO_bQ2ajv-38" source="IYUW4PkFBxvoO_bQ2ajv-27" target="IYUW4PkFBxvoO_bQ2ajv-22" edge="1">
                    <mxGeometry relative="1" as="geometry">
                        <Array as="points">
                            <mxPoint x="910" y="65"/>
                        </Array>
                    </mxGeometry>
                </mxCell>
                <mxCell id="IYUW4PkFBxvoO_bQ2ajv-27" value="1/2" style="text;html=1;align=center;verticalAlign=middle;resizable=0;points=[];autosize=1;strokeColor=none;fillColor=none;fontSize=47;" parent="IYUW4PkFBxvoO_bQ2ajv-38" vertex="1">
                    <mxGeometry x="730" y="30" width="90" height="70" as="geometry"/>
                </mxCell>
                <mxCell id="IYUW4PkFBxvoO_bQ2ajv-31" style="edgeStyle=none;html=1;entryX=0.5;entryY=1;entryDx=0;entryDy=0;strokeWidth=3;fontSize=47;endArrow=block;endFill=1;" parent="IYUW4PkFBxvoO_bQ2ajv-38" source="IYUW4PkFBxvoO_bQ2ajv-29" target="IYUW4PkFBxvoO_bQ2ajv-24" edge="1">
                    <mxGeometry relative="1" as="geometry">
                        <Array as="points">
                            <mxPoint x="910" y="605"/>
                        </Array>
                    </mxGeometry>
                </mxCell>
                <mxCell id="IYUW4PkFBxvoO_bQ2ajv-29" value="1/2" style="text;html=1;align=center;verticalAlign=middle;resizable=0;points=[];autosize=1;strokeColor=none;fillColor=none;fontSize=47;" parent="IYUW4PkFBxvoO_bQ2ajv-38" vertex="1">
                    <mxGeometry x="740" y="570" width="90" height="70" as="geometry"/>
                </mxCell>
                <mxCell id="IYUW4PkFBxvoO_bQ2ajv-36" style="edgeStyle=none;html=1;entryX=0.5;entryY=1;entryDx=0;entryDy=0;strokeWidth=3;fontSize=47;endArrow=block;endFill=1;" parent="IYUW4PkFBxvoO_bQ2ajv-38" source="IYUW4PkFBxvoO_bQ2ajv-35" target="IYUW4PkFBxvoO_bQ2ajv-25" edge="1">
                    <mxGeometry relative="1" as="geometry">
                        <Array as="points">
                            <mxPoint x="1140" y="605"/>
                        </Array>
                    </mxGeometry>
                </mxCell>
                <mxCell id="IYUW4PkFBxvoO_bQ2ajv-35" value="1/w" style="text;html=1;align=center;verticalAlign=middle;resizable=0;points=[];autosize=1;strokeColor=none;fillColor=none;fontSize=47;" parent="IYUW4PkFBxvoO_bQ2ajv-38" vertex="1">
                    <mxGeometry x="975" y="570" width="100" height="70" as="geometry"/>
                </mxCell>
                <mxCell id="IYUW4PkFBxvoO_bQ2ajv-33" style="edgeStyle=none;html=1;exitX=1;exitY=0.5;exitDx=0;exitDy=0;entryX=0;entryY=0.5;entryDx=0;entryDy=0;strokeWidth=3;fontSize=47;endArrow=block;endFill=1;" parent="IYUW4PkFBxvoO_bQ2ajv-38" source="IYUW4PkFBxvoO_bQ2ajv-24" target="IYUW4PkFBxvoO_bQ2ajv-25" edge="1">
                    <mxGeometry relative="1" as="geometry"/>
                </mxCell>
                <mxCell id="IYUW4PkFBxvoO_bQ2ajv-37" style="edgeStyle=none;html=1;entryX=0.629;entryY=1.11;entryDx=0;entryDy=0;entryPerimeter=0;strokeWidth=3;fontSize=47;endArrow=block;endFill=1;" parent="IYUW4PkFBxvoO_bQ2ajv-38" source="IYUW4PkFBxvoO_bQ2ajv-13" target="IYUW4PkFBxvoO_bQ2ajv-35" edge="1">
                    <mxGeometry relative="1" as="geometry">
                        <Array as="points">
                            <mxPoint x="1038" y="710"/>
                        </Array>
                    </mxGeometry>
                </mxCell>
            </root>
        </mxGraphModel>
    </diagram>
</mxfile>